# xmcd CD database file
# Copyright (C) 1997 Ti Kan
# 
# Track frame offsets:
#     150
#     21043
#     38705
#     63810
#     75090
#     86740
#     99370
#     120375
#     140728
#     161333
#     176905
#     197793
#     203893
# 
# Disc length: 2966 seconds
# 
# Revision: 1
# Processed by: cddbd v1.4b41PL1 Copyright (c) Steve Scherf et al.
# Submitted via: DiscPlay 4.0.4
# 
DISCID=9f0b940d
DTITLE=Q Stone - Q Stone
DYEAR=1900
DGENRE=
TTITLE0=Blue View
TTITLE1=Sweet Dreams
TTITLE2=You Did It For Me
TTITLE3=Open Door
TTITLE4=Blues Man
TTITLE5=Black Water
TTITLE6=High Winds
TTITLE7=Behind The Bars
TTITLE8=And I Wait
TTITLE9=Tomorrow With You
TTITLE10=Give Me Somthing Else
TTITLE11=Zack's Blues
TTITLE12=Dead Man At Dawn
EXTD=
EXTT0=
EXTT1=
EXTT2=
EXTT3=
EXTT4=
EXTT5=
EXTT6=
EXTT7=
EXTT8=
EXTT9=
EXTT10=
EXTT11=CD Bonus\n
EXTT12=CD Bonus\n
PLAYORDER=
